# xmcd
#
# Track frame offsets:
#	150
#	11659
#	23648
#	34102
#	47256
#	59446
#	71132
#	82398
#	94722
#	106739
#	119208
#	131627
#	143383
#	155371
#	165593
#	177774
#	188761
#	200311
#	210549
#	222699
#
# Disc length: 3144 seconds
#
# Revision: 0
# Processed by: cddbd v1.5.2PL0 Copyright (c) Steve Scherf et al.
# Submitted via: EZCDAudioConverter 2.8.0.1
#
DISCID=190c4614
DTITLE=Stoney Edwards - She's My Rock
DYEAR=1971
DGENRE=Country
TTITLE0=All She Made Of Me
TTITLE1=Daddy Did His Best
TTITLE2=She Believed In Me
TTITLE3=A Kingdom I Call Home
TTITLE4=Tell Me That You Love Me
TTITLE5=What Made You Change Your Mind?
TTITLE6=You Can't Call Yourself Country
TTITLE7=Why Don't You Go Home (Where You Belong)
TTITLE8=I Don't Believe I'll Fall In Love Today
TTITLE9=I Won't Make It Through The Day
TTITLE10=You're A Believer
TTITLE11=Sunshine Feeling
TTITLE12=She's Helping Me Get Over You
TTITLE13=The Fishin' Song
TTITLE14=A Two Dollar Toy
TTITLE15=She's My Rock
TTITLE16=I've Got Mine
TTITLE17=Honky Tonk Heaven
TTITLE18=You Stayed Long Enough (To Make Me Love You)
TTITLE19=Something New And Different
EXTD=
EXTT0=
EXTT1=
EXTT2=
EXTT3=
EXTT4=
EXTT5=
EXTT6=
EXTT7=
EXTT8=
EXTT9=
EXTT10=
EXTT11=
EXTT12=
EXTT13=
EXTT14=
EXTT15=
EXTT16=
EXTT17=
EXTT18=
EXTT19=
PLAYORDER=
